<svg xmlns="http://www.w3.org/2000/svg" version="1.1" xmlns:xlink="http://www.w3.org/1999/xlink" xmlns:svgjs="http://svgjs.dev/svgjs" width="2000" height="2024" viewBox="0 0 2000 2024"><g transform="matrix(1,0,0,1,1.767868852458946,0.8194331983804659)"><svg viewBox="0 0 244 247" data-background-color="#fafafa" preserveAspectRatio="xMidYMid meet" height="2024" width="2000" xmlns="http://www.w3.org/2000/svg" xmlns:xlink="http://www.w3.org/1999/xlink"><g id="tight-bounds" transform="matrix(1,0,0,1,-0.21567999999999188,-0.09999999999999432)"><svg viewBox="0 0 244.43135999999998 247.2" height="247.2" width="244.43135999999998"><g><svg></svg></g><g><svg viewBox="0 0 244.43135999999998 247.2" height="247.2" width="244.43135999999998"><g transform="matrix(1,0,0,1,0,56.15056897689769)"><svg viewBox="0 0 244.43135999999998 134.8988620462046" height="134.8988620462046" width="244.43135999999998"><g><svg viewBox="0 0 244.43135999999998 134.8988620462046" height="134.8988620462046" width="244.43135999999998"><g><svg viewBox="0 0 244.43135999999998 134.8988620462046" height="134.8988620462046" width="244.43135999999998"><g><svg viewBox="0 0 244.43135999999998 134.8988620462046" height="134.8988620462046" width="244.43135999999998"><g id="textblocktransform"><svg viewBox="0 0 244.43135999999998 134.8988620462046" height="134.8988620462046" width="244.43135999999998" id="textblock"><g><svg viewBox="0 0 244.43135999999998 134.8988620462046" height="134.8988620462046" width="244.43135999999998"><g transform="matrix(1,0,0,1,0,0)"><svg width="244.43135999999998" viewBox="2.73 -36.25 66.58 36.74" height="134.8988620462046" data-palette-color="#130912"><path d="M32.3-7.2L32.3-3.3Q31.13-2.32 29.64-1.61 28.15-0.9 26.53-0.44 24.9 0.02 23.22 0.26 21.53 0.49 20 0.49L20 0.49Q16.28 0.49 13.13-0.74 9.99-1.98 7.67-4.25 5.35-6.52 4.04-9.72 2.73-12.92 2.73-16.87L2.73-16.87Q2.73-19.97 3.53-22.61 4.32-25.24 5.73-27.39 7.13-29.54 9.06-31.2 10.99-32.86 13.26-33.98 15.53-35.11 18.05-35.68 20.58-36.25 23.19-36.25L23.19-36.25Q24.02-36.25 25.13-36.19 26.25-36.13 27.48-35.99 28.71-35.84 30-35.6 31.3-35.35 32.54-35.01L32.54-35.01 31.27-29.25 30.79-29.05Q28.54-30.13 26.51-30.53 24.49-30.93 22.92-30.93L22.92-30.93Q20.39-30.93 18.31-30.02 16.24-29.1 14.75-27.44 13.26-25.78 12.44-23.46 11.62-21.14 11.62-18.31L11.62-18.31Q11.62-15.43 12.46-13.02 13.31-10.62 14.92-8.87 16.53-7.13 18.86-6.16 21.19-5.2 24.17-5.2L24.17-5.2Q26.46-5.2 28.45-5.74 30.44-6.27 32.3-7.2L32.3-7.2ZM52.71-13.23L48.17-13.23 48.17 0 39.55 0 39.55-35.77 52.39-35.77Q55.88-35.77 58.47-35.01 61.06-34.25 62.78-32.97 64.5-31.69 65.35-30 66.21-28.32 66.21-26.46L66.21-26.46Q66.21-24.78 65.57-23.28 64.94-21.78 63.94-20.52 62.94-19.26 61.7-18.23 60.47-17.19 59.3-16.41L59.3-16.41 69.31 0 59.3 0 52.71-13.23ZM48.17-30.44L48.17-18.19 54.34-18.19Q55.03-18.55 55.65-19.17 56.27-19.78 56.75-20.57 57.22-21.36 57.52-22.34 57.81-23.32 57.81-24.46L57.81-24.46Q57.81-25.73 57.42-26.83 57.03-27.93 56.25-28.74 55.47-29.54 54.32-29.99 53.17-30.44 51.63-30.44L51.63-30.44 48.17-30.44Z" opacity="1" transform="matrix(1,0,0,1,0,0)" fill="#000000" class="wordmark-text-0" data-fill-palette-color="primary" id="text-0"></path></svg></g></svg></g></svg></g></svg></g><g></g></svg></g></svg></g></svg></g><path d="M0 50.151L0 1 244.431 1 244.431 50.151 232.266 50.151 232.266 13.165 12.165 13.165 12.165 50.151 0 50.151M0 197.049L0 246.2 244.431 246.2 244.431 197.049 232.266 197.049 232.266 234.035 12.165 234.035 12.165 197.049 0 197.049" fill="#000000" stroke="transparent" data-fill-palette-color="tertiary"></path></svg></g><defs></defs></svg><rect width="244.43135999999998" height="247.2" fill="none" stroke="none" visibility="hidden"></rect></g></svg></g></svg>